<svg width="48" height="48" viewBox="0 0 48 48" fill="none" xmlns="http://www.w3.org/2000/svg">
<path d="M0.563651 0.151724C-0.0226989 0.444571 -0.0226989 0.421144 0.0124821 7.16834C0.0359361 13.4118 0.035936 13.4704 0.282203 13.7164C0.634012 14.0678 1.29072 14.0678 1.67771 13.7047L1.97089 13.4353V7.70718V1.9908H7.69366C12.1968 1.97909 13.4516 1.95566 13.6041 1.82681C14.0966 1.45196 14.1083 0.620279 13.6041 0.233721C13.3226 0.011157 13.1115 -0.000556946 7.08386 -0.000556946C2.3227 -0.000556946 0.786463 0.034585 0.563651 0.151724Z" fill="white"/>
<path d="M34.4326 0.234543C34.069 0.515676 33.9518 0.937376 34.1042 1.35908C34.3505 2.00334 34.1863 1.97991 40.3547 1.99162H46.0658V7.69628C46.0775 12.2061 46.1009 13.4595 46.2299 13.6118C46.5817 14.0803 47.3909 14.1155 47.7896 13.6821C47.989 13.4595 48.0007 13.0612 48.0007 7.01688V0.597673L47.731 0.328254L47.4613 0.058835L41.0935 0.0236931C34.8782 0.000265121 34.7258 0.000265121 34.4326 0.234543Z" fill="white"/>
<path d="M6.59139 6.13755C6.35685 6.24297 6.18095 6.4304 6.08713 6.67639C5.87604 7.28551 5.91123 16.8675 6.12231 17.3829C6.40376 18.0389 6.45067 18.0506 12.2086 18.0154L17.4389 17.9803L17.7086 17.7109L17.9783 17.4414L18.0135 12.1936C18.0369 8.82003 18.0018 6.82867 17.9197 6.62953C17.6851 5.99698 17.4623 5.97356 11.9741 5.97356C8.01036 5.98527 6.87284 6.02041 6.59139 6.13755ZM16.0199 12.0413L16.0433 16.0475L12.0327 16.0241L8.01036 15.9889L7.97518 12.1233C7.96345 10.0031 7.97518 8.18748 8.01036 8.10548C8.04554 7.98834 8.90161 7.96492 12.021 7.98834L15.9847 8.02348L16.0199 12.0413Z" fill="white"/>
<path d="M10.3205 10.3433C10.086 10.5893 10.0625 10.7416 10.0625 11.995C10.0625 12.7447 10.1094 13.4709 10.1798 13.5881C10.3557 13.9161 10.9303 14.0566 12.0795 14.0566C13.78 14.0566 14.0497 13.7872 14.0497 12.077C14.0497 10.9407 13.909 10.3668 13.5806 10.1911C13.4633 10.1208 12.7363 10.0739 11.9623 10.0739C10.6606 10.0739 10.555 10.0856 10.3205 10.3433Z" fill="white"/>
<path d="M20.7701 6.06797C20.6176 6.0914 20.3948 6.24368 20.2658 6.40767C20.0664 6.66538 20.0312 6.87623 20.0312 8.02419C20.0312 9.17215 20.0664 9.383 20.2775 9.65242C20.6059 10.0741 21.3212 10.0858 21.7317 9.66413C22.0131 9.39471 22.0248 9.31271 22.0248 8.04761C22.0248 6.88794 21.9897 6.66538 21.7903 6.41938C21.5558 6.11482 21.2274 5.99769 20.7701 6.06797Z" fill="white"/>
<path d="M30.6072 6.14926C30.3961 6.24297 30.1733 6.45382 30.1146 6.62953C30.0325 6.82867 29.9974 8.82003 30.0208 12.1936L30.056 17.4414L30.3257 17.7109L30.5954 17.9803L35.8257 18.0154C41.5836 18.0506 41.6305 18.0389 41.912 17.3829C42.1231 16.8675 42.1582 7.28551 41.9472 6.67639C41.7009 5.98527 41.5953 5.97356 36.0133 5.97356C31.9558 5.98527 30.9238 6.0087 30.6072 6.14926ZM40.0239 12.0062V15.9889L36.0133 16.0241L31.9909 16.0475V12.0882C31.9909 9.90942 32.0261 8.08205 32.073 8.04691C32.1199 8.00006 33.9259 7.97663 36.0837 7.98834L40.0239 8.02348V12.0062Z" fill="white"/>
<path d="M34.4789 10.1559C34.1505 10.2848 33.9863 10.8822 33.9863 11.995C33.9863 13.7989 34.2326 14.0566 35.9682 14.0566C37.0823 14.0566 37.5631 13.9395 37.8093 13.6115C37.9149 13.4709 37.9618 12.9672 37.9735 11.995C37.9735 10.6713 37.9618 10.5659 37.7038 10.3316C37.4575 10.0973 37.3168 10.0739 36.0268 10.0856C35.2646 10.0856 34.561 10.1208 34.4789 10.1559Z" fill="white"/>
<path d="M24.7562 8.0474C24.6038 8.07082 24.381 8.23482 24.252 8.39881C24.0409 8.66823 24.0174 8.86737 24.0174 10.3785V12.0653H22.2701H20.5111L20.2765 12.3698C19.9482 12.7798 19.9716 13.2718 20.3117 13.6701L20.5932 13.998H23.0206H25.4481L25.7296 13.6701C25.9993 13.3538 26.011 13.2601 26.011 11.7256V10.109L26.7381 10.0388C27.3362 9.98019 27.5238 9.92162 27.7349 9.66391C28.0867 9.26564 28.075 8.76194 27.7232 8.35196C27.4534 8.0474 27.3948 8.03568 26.2338 8.01225C25.5654 8.00054 24.897 8.01225 24.7562 8.0474Z" fill="white"/>
<path d="M22.318 16.3411L22.0248 16.6222V19.3281V22.0223H21.3212C20.7231 22.0223 20.559 22.0692 20.3244 22.3152C19.9257 22.7017 19.9257 23.3343 20.3244 23.7208C20.6059 24.0137 20.6176 24.0137 22.8926 24.0137C24.3468 24.0137 25.2849 23.9668 25.4726 23.8848C26.0589 23.6154 26.1527 22.5729 25.625 22.198C25.4726 22.0926 25.109 22.0223 24.6986 22.0223H24.0184V20.031V18.0396H25.6016C26.5046 18.0396 27.2903 17.981 27.4544 17.9107C28.0408 17.6413 28.1815 16.7979 27.7124 16.3411C27.431 16.0482 27.4193 16.0482 25.0152 16.0482C22.6112 16.0482 22.5995 16.0482 22.318 16.3411Z" fill="white"/>
<path d="M6.34593 20.3108L6.01758 20.5919V24.0124V27.4329L6.34593 27.714C6.74465 28.0537 7.23719 28.0771 7.64763 27.7491L7.95253 27.5148V25.7578V24.0124H9.64122C11.2361 24.0124 11.3534 24.0007 11.6465 23.743C12.057 23.4033 12.0804 22.7004 11.7169 22.3256C11.4941 22.103 11.2947 22.0796 9.73503 22.021L8.01117 21.9625L7.97599 21.2362C7.9408 20.6154 7.8939 20.4748 7.6359 20.264C7.23719 19.9477 6.74465 19.9711 6.34593 20.3108Z" fill="white"/>
<path d="M28.4613 20.1848C28.0977 20.4659 28.0039 20.8408 28.0039 22.0825C28.0039 23.3124 28.0039 23.3358 28.3557 23.6873C28.6723 23.9918 28.7779 24.0387 29.1532 23.9801C29.892 23.8512 29.9975 23.6053 29.9975 22.0005C29.9975 20.6768 29.9858 20.5948 29.7043 20.3254C29.3877 20.0091 28.7779 19.9388 28.4613 20.1848Z" fill="white"/>
<path d="M34.3717 20.3125L34.0433 20.5936L34.0081 23.2995L33.9729 26.0054H32.3312H30.6777L30.3376 26.3451L29.9975 26.6848V28.3365V29.9881H29.3408C28.7779 29.9881 28.6489 30.035 28.344 30.3278C28.1564 30.5153 28.0039 30.7847 28.0039 30.9252C28.0039 31.2649 28.3088 31.8155 28.5316 31.9092C28.6372 31.9444 29.3291 31.9795 30.0679 31.9795C31.3461 31.9795 31.4282 31.9678 31.6979 31.6866C31.9794 31.4172 31.9911 31.3587 31.9911 29.6953V27.9968H33.6915C35.3567 27.9968 35.4154 27.9851 35.6851 27.7039L35.9783 27.4228V24.7169V22.0227H36.6819C37.28 22.0227 37.4441 21.9758 37.6787 21.7298C38.1008 21.3199 38.0891 20.6053 37.6669 20.2773C37.3972 20.0665 37.1861 20.0313 36.0252 20.0313C34.7938 20.0313 34.6766 20.0548 34.3717 20.3125Z" fill="white"/>
<path d="M16.337 22.3149C16.0555 22.5843 16.0438 22.6429 16.0438 24.3062V26.0047H14.3434C12.6782 26.0047 12.6195 26.0164 12.3498 26.2976C12.1505 26.485 12.0566 26.7076 12.0566 27.0004C12.0566 27.2933 12.1505 27.5158 12.3498 27.7032L12.6313 27.9961H16.9702C19.3508 27.9961 21.3913 27.961 21.4969 27.9258C21.7197 27.8321 22.0246 27.2815 22.0246 26.9418C22.0246 26.8013 21.8721 26.5319 21.6845 26.3444L21.3444 26.0047H19.6909H18.0374V24.3531V22.7014L17.6973 22.3617C17.2517 21.9283 16.7357 21.9049 16.337 22.3149Z" fill="white"/>
<path d="M40.3883 22.268L40.0834 22.5023V24.2594V26.0047H39.3915C38.4534 26.0047 38.0898 26.2859 38.0898 27.0004C38.0898 27.4104 38.1485 27.5627 38.3947 27.7501C38.6645 27.961 38.8756 27.9961 40.0365 27.9961C41.2679 27.9961 41.3851 27.9727 41.69 27.715L42.0184 27.4338V25.0091V22.5843L41.69 22.3031C41.2913 21.9634 40.7988 21.94 40.3883 22.268Z" fill="white"/>
<path d="M24.5344 28.137C24.1122 28.3362 24.0184 28.7462 24.0184 30.3978V31.9792H22.3649H20.7114L20.3713 32.3189C20.0312 32.6586 20.0312 32.682 20.0312 34.0291C20.0312 35.3177 20.043 35.3996 20.3244 35.6691C20.5121 35.8682 20.7349 35.9619 21.028 35.9619C21.7082 35.9619 22.0248 35.5519 22.0248 34.6734V33.9706H23.0216H24.0184V34.6734C24.0184 35.5519 24.3351 35.9619 25.0152 35.9619C25.3084 35.9619 25.5312 35.8682 25.7188 35.6691L26.012 35.3879V32.0143C26.0003 28.4767 26.0003 28.4182 25.4608 28.137C25.1559 27.973 24.8745 27.973 24.5344 28.137Z" fill="white"/>
<path d="M6.56879 30.1046C5.99417 30.3389 5.95898 30.6434 5.95898 36.0201C5.95898 41.5608 5.97071 41.6779 6.6626 41.9239C6.93232 42.0059 8.60928 42.0527 12.0218 42.0527C17.4514 42.0527 17.686 42.0293 17.9205 41.3968C18.0026 41.1976 18.0378 39.2063 18.0143 35.8327L17.9791 30.5848L17.7094 30.3154L17.4397 30.046L12.1391 30.0226C9.05491 30.0109 6.72124 30.046 6.56879 30.1046ZM16.0207 35.9849L15.9856 40.0028H11.9984H8.01121L7.97603 36.1372C7.9643 34.017 7.97603 32.2014 8.01121 32.1311C8.04639 32.0139 8.96109 31.9788 12.057 31.9788H16.0442L16.0207 35.9849Z" fill="white"/>
<path d="M10.5902 34.1119C10.1094 34.3697 10.0625 34.5571 10.0625 36.0213C10.0625 37.3567 10.0742 37.4621 10.3322 37.6964C10.5785 37.9307 10.7309 37.9541 11.9857 37.9541C12.7363 37.9541 13.4633 37.9072 13.5806 37.837C13.909 37.6613 14.0497 37.0873 14.0497 35.9393C14.0497 34.7796 13.8972 34.3345 13.4047 34.1119C13.0177 33.9362 10.9068 33.9362 10.5902 34.1119Z" fill="white"/>
<path d="M34.4779 30.1754C33.9033 30.5737 33.915 31.5459 34.4896 31.8388C34.6538 31.9325 35.6623 31.991 37.3862 32.0145L40.0247 32.0379L40.0599 33.7364C40.0834 35.2826 40.1068 35.4466 40.3414 35.6926C40.6111 35.9855 41.2209 36.0558 41.6079 35.8449C41.9832 35.6458 42.077 35.0601 42.077 33.0101C42.077 30.8079 41.9597 30.3042 41.432 30.1051C41.2561 30.0348 39.7668 29.988 37.9373 29.988C35.1932 29.988 34.7007 30.0114 34.4779 30.1754Z" fill="white"/>
<path d="M0.727049 34.0517C0.586325 34.0751 0.375239 34.204 0.257969 34.3445C0.0468832 34.5671 0.0351562 34.9068 0.0351562 41.0097V47.4289L0.304877 47.6984L0.574598 47.9678H7.00099C13.0521 47.9678 13.4508 47.9561 13.6736 47.7569C14.1075 47.3587 14.0724 46.5504 13.6033 46.199C13.4508 46.0701 12.196 46.0467 7.69288 46.035H1.97011V40.3186C1.97011 34.7194 1.97011 34.5905 1.73557 34.3445C1.59485 34.204 1.44239 34.0868 1.38376 34.0868C1.33685 34.0868 1.21958 34.0634 1.12577 34.04C1.04368 34.0165 0.856045 34.0283 0.727049 34.0517Z" fill="white"/>
<path d="M30.5851 34.1225C30.1981 34.3216 29.9988 34.7433 29.9988 35.3993V35.9615H29.471C28.8143 35.9615 28.2632 36.231 28.1224 36.6175C28.0521 36.7815 28.0052 37.6249 28.0052 38.4917V40.0614H25.261H22.5052L22.2707 40.366C21.9423 40.7759 21.9658 41.2679 22.3058 41.6662L22.5873 41.9942H25.9998C30.2685 41.9942 29.9167 42.1933 29.9988 39.7334L30.0574 38.0115L30.7845 37.9763C31.406 37.9412 31.5467 37.8943 31.7578 37.6366C31.9689 37.3672 31.9923 37.1681 31.9923 35.9732C31.9806 34.509 31.922 34.2982 31.3591 34.0873C30.9604 33.935 30.9369 33.9467 30.5851 34.1225Z" fill="white"/>
<path d="M46.6632 34.0992C46.0651 34.3335 46.0768 34.2163 46.0651 40.3192V46.0356H40.354C34.127 46.0473 34.3381 46.0239 34.0918 46.715C33.9394 47.1602 34.1387 47.6521 34.5726 47.8747C34.8072 47.9918 36.2379 48.0153 41.1632 47.9918L47.4606 47.9684L47.7303 47.699L48 47.4296V40.9986C48 34.72 48 34.556 47.7655 34.3335C47.4723 34.0523 47.0267 33.9586 46.6632 34.0992Z" fill="white"/>
<path d="M36.6121 36.1255C36.0961 36.3481 35.9788 36.8049 35.9788 38.5503V40.0614H35.3221C34.9703 40.0614 34.5716 40.1082 34.4543 40.1785C34.1377 40.3542 33.9735 40.9282 34.1259 41.3616C34.3488 41.9942 34.6771 42.0527 38.0076 42.0527C41.7016 42.0527 41.9596 41.9825 41.9596 40.9751C41.9596 40.1785 41.8306 40.1317 39.8253 40.0614L38.031 40.0028L38.0076 38.4214C37.9607 36.4301 37.9489 36.3364 37.4447 36.1255C36.9756 35.9381 37.0694 35.9381 36.6121 36.1255Z" fill="white"/>
</svg>
